# xmcd CD database file
#
# Track frame offsets:
#	150
#	19150
#	39015
#	52337
#	76305
#	97497
#	115777
#	134137
#	140395
#	161160
#
# Disc length: 2507 seconds
#
# Revision: 0
# Processed by: cddbd v1.5PL3 Copyright (c) Steve Scherf et al.
# Submitted via: CDex 1.50
#
DISCID=8e09c90a
DTITLE=metrobo - sofa
DYEAR=2004
DGENRE=JPop
TTITLE0=realize
TTITLE1=neo(sofa mix)
TTITLE2=5F
TTITLE3=sofa
TTITLE4=blue
TTITLE5=+(sofa mix)
TTITLE6=newtone
TTITLE7=cinematron
TTITLE8=colony
TTITLE9=next
EXTD=YEAR: 2004
EXTT0=
EXTT1=
EXTT2=
EXTT3=
EXTT4=
EXTT5=
EXTT6=
EXTT7=
EXTT8=
EXTT9=
PLAYORDER=
